<?xml version="1.0" encoding="utf-8"?>
<!-- Generator: Adobe Illustrator 16.0.0, SVG Export Plug-In . SVG Version: 6.00 Build 0)  -->
<!DOCTYPE svg PUBLIC "-//W3C//DTD SVG 1.1//EN" "http://www.w3.org/Graphics/SVG/1.1/DTD/svg11.dtd">
<svg version="1.1" id="Layer_1" xmlns="http://www.w3.org/2000/svg" xmlns:xlink="http://www.w3.org/1999/xlink" x="0px" y="0px"
	 width="1728px" height="864px" viewBox="0 0 1728 864" enable-background="new 0 0 1728 864" xml:space="preserve">
<g>
	
		<path fill="none" stroke="#010101" stroke-width="0.709" stroke-linecap="round" stroke-linejoin="round" stroke-miterlimit="10" d="
		M119.693,36.791l-0.13,0.996l-0.325,0.892l-0.426,0.888l-0.623,0.783l-0.721,0.679l-0.814,0.477l-0.91,0.374l-0.906,0.174
		l-0.999-0.029l-0.997-0.129l-0.891-0.326l-0.888-0.426l-0.68-0.72l-0.68-0.721l-0.477-0.813l-0.271-1.009l-0.174-0.905l0.028-1
		l0.229-0.993l0.326-0.891l0.521-0.786l0.72-0.679l0.721-0.68l0.91-0.374l0.909-0.273l1.005-0.171l0.997,0.129l0.895,0.226
		l0.888,0.427l0.784,0.522l0.68,0.721l0.577,0.816l0.373,0.912l0.273,0.907L119.693,36.791 M163.791,178.928l-0.13,0.997
		l-0.326,0.892l-0.426,0.888l-0.623,0.782l-0.72,0.68l-0.814,0.477l-0.911,0.373l-0.905,0.174l-1.002,0.071l-0.997-0.129
		l-0.889-0.427l-0.887-0.425l-0.783-0.624l-0.576-0.816l-0.477-0.814l-0.273-0.908l-0.172-1.006l0.029-0.999l0.227-0.895
		l0.325-0.892l0.526-0.884l0.619-0.683l0.818-0.577l0.913-0.474l0.909-0.273l1.002-0.071l1,0.029l0.894,0.227l0.888,0.425
		l0.782,0.624l0.683,0.619l0.576,0.817l0.374,0.911l0.271,1.009L163.791,178.928 M67.43,176.133l-0.129,0.997l-0.226,0.894
		l-0.526,0.886l-0.522,0.785l-0.82,0.677l-0.814,0.477l-0.911,0.373l-0.905,0.174l-1.003,0.07l-0.996-0.128l-0.888-0.427
		l-0.889-0.425l-0.683-0.621l-0.677-0.819l-0.477-0.814l-0.273-0.908l-0.171-1.006l0.029-0.999l0.226-0.894l0.326-0.892l0.525-0.885
		l0.721-0.679l0.717-0.58l0.915-0.474l0.907-0.274l1.003-0.07l0.999,0.029l0.895,0.226l0.888,0.426l0.783,0.624l0.782,0.622
		l0.477,0.813l0.473,0.915l0.172,1.005L67.43,176.133 M45.541,113.373l0.202-3.495l0.398-3.391l0.497-3.387l0.696-3.281l0.898-3.375
		l1.092-3.17l1.195-3.267l1.39-3.061l1.489-3.059l1.687-2.952l1.887-2.947l1.979-2.743l2.181-2.738l2.274-2.535l2.372-2.433
		l2.468-2.328l2.663-2.124l2.763-2.121l2.854-1.817l2.854-1.818l3.048-1.613l3.142-1.409L88.709,53l3.233-1.107l3.328-0.903
		l3.324-0.805l3.318-0.604l3.414-0.4l3.406-0.201l3.405-0.102l3.398,0.099l3.493,0.301l3.389,0.398l3.284,0.596l3.379,0.799
		l3.272,0.995l3.17,1.093l3.164,1.292l3.158,1.492l2.955,1.586l2.949,1.787l2.844,1.983l2.743,1.979l2.635,2.277l2.437,2.272
		l2.43,2.471l2.226,2.565l2.124,2.663l2.019,2.859l1.817,2.854l1.612,3.048l1.513,3.045l1.409,3.143l1.21,3.137l1.004,3.33
		l0.808,3.225l0.7,3.422l0.504,3.316l0.401,3.412l0.102,3.405l-0.002,3.501l-0.198,3.396l-0.299,3.392l-0.599,3.385l-0.694,3.281
		l-0.898,3.376l-0.996,3.271l-1.191,3.167l-1.391,3.061l-1.589,3.055l-1.688,3.054l-1.784,2.849l-1.979,2.744l-2.181,2.738
		l-2.275,2.534l-2.371,2.433l-2.568,2.327l-2.563,2.127l-2.763,2.119l-2.854,1.818l-2.953,1.816l-3.048,1.611l-3.042,1.412
		l-3.239,1.307l-3.234,1.107l-3.228,0.906l-3.324,0.804l-3.42,0.602l-3.313,0.404l-3.409,0.302l-3.502-0.002l-3.398-0.099
		l-3.396-0.198l-3.386-0.499l-3.385-0.599l-3.278-0.796l-3.272-0.994l-3.27-1.096l-3.164-1.292l-3.059-1.49l-3.055-1.589
		l-2.949-1.785l-2.744-1.981l-2.743-1.98l-2.636-2.276l-2.535-2.274l-2.329-2.47l-2.227-2.565l-2.124-2.662l-2.018-2.859
		l-1.817-2.854l-1.716-2.951l-1.51-3.146l-1.309-3.139l-1.211-3.136l-1.006-3.231l-0.904-3.327l-0.7-3.422l-0.505-3.316l-0.301-3.41
		l-0.201-3.406L45.541,113.373 M21.251,112.668l-0.017,4.001l0.185,4.007l0.283,4.01l0.487,3.916l0.684,4.021l0.886,3.927
		l0.989,3.83l1.189,3.837l1.392,3.741l1.593,3.748l1.694,3.651l1.798,3.554l2.001,3.459l2.203,3.365l2.306,3.269l2.409,3.172
		l2.612,3.076l2.715,2.979l2.82,2.783l3.021,2.789l3.029,2.488l3.229,2.495l3.337,2.197l3.338,2.198l3.543,2.003l3.55,1.804
		l3.655,1.607l3.758,1.51l3.763,1.31l3.867,1.212l3.872,1.014l3.878,0.812l3.984,0.616l3.986,0.516l3.995,0.216l3.999,0.116
		l4.001,0.017l4.01-0.284l4.013-0.384l4.019-0.583l3.924-0.787l3.931-0.986l3.833-1.089l3.739-1.293l3.742-1.393l3.748-1.592
		l3.554-1.797l3.56-1.998l3.459-2l3.269-2.307l3.268-2.306l3.077-2.612l3.077-2.612l2.883-2.817l2.686-2.923l2.689-3.024
		l2.491-3.129l2.295-3.234l2.298-3.334l2.001-3.443l1.903-3.547l1.706-3.652l1.606-3.654l1.41-3.762l1.31-3.764l1.013-3.871
		l0.916-3.976l0.713-3.881l0.615-3.984l0.417-3.989l0.115-3.998l0.119-4.099l-0.185-4.007l-0.387-3.913l-0.483-4.016l-0.687-3.922
		l-0.787-3.924l-1.086-3.934l-1.189-3.836l-1.392-3.742l-1.492-3.745l-1.694-3.65l-1.799-3.554l-2.101-3.463l-2.104-3.362
		l-2.306-3.268l-2.51-3.174l-2.511-3.074l-2.715-2.98l-2.921-2.785l-2.923-2.687l-3.126-2.592l-3.133-2.392l-3.334-2.298l-3.438-2.2
		l-3.446-1.9l-3.646-1.907l-3.655-1.606l-3.658-1.507l-3.764-1.31l-3.866-1.212l-3.872-1.014l-3.978-0.815l-3.984-0.616
		l-3.986-0.515l-3.995-0.217l-3.999-0.116l-4.001-0.016l-4.01,0.284l-4.013,0.383l-3.919,0.587l-3.924,0.787l-3.931,0.986
		l-3.833,1.09l-3.839,1.288l-3.742,1.393l-3.651,1.695l-3.65,1.694l-3.46,2.001l-3.462,2.101l-3.365,2.203l-3.172,2.409
		l-3.173,2.509l-2.978,2.614l-2.883,2.818l-2.786,2.92l-2.589,3.026l-2.491,3.129l-2.396,3.231l-2.197,3.338l-2.001,3.444
		l-1.903,3.546l-1.807,3.649l-1.607,3.654l-1.409,3.761l-1.212,3.867l-1.113,3.869l-0.912,3.875l-0.717,3.98l-0.512,3.888
		l-0.417,3.989L21.251,112.668"/>
	
		<path fill="none" stroke="#010101" stroke-width="0.709" stroke-linecap="round" stroke-linejoin="round" stroke-miterlimit="10" d="
		M118.503,74.372l-0.121,0.696l-0.123,0.797l-0.32,0.691l-0.42,0.688l-0.418,0.588l-0.613,0.481l-0.614,0.482l-0.712,0.38
		l-0.705,0.18l-0.706,0.18l-0.8-0.023l-0.799-0.023l-0.694-0.22l-0.694-0.22l-0.688-0.421l-0.585-0.517l-0.584-0.518l-0.383-0.611
		l-0.381-0.711l-0.279-0.709l-0.076-0.802l-0.08-0.703l0.124-0.797l0.122-0.796l0.32-0.691l0.418-0.589l0.42-0.688l0.614-0.482
		l0.614-0.482l0.708-0.28l0.709-0.279l0.706-0.18l0.799,0.023l0.8,0.022l0.694,0.221l0.69,0.32l0.691,0.32l0.585,0.518l0.585,0.518
		l0.38,0.71l0.383,0.612l0.279,0.708l0.076,0.803L118.503,74.372 M81.131,134.913l-0.123,0.798l-0.121,0.696l-0.322,0.791
		l-0.417,0.588l-0.418,0.588l-0.616,0.583l-0.612,0.382l-0.61,0.383l-0.809,0.276l-0.703,0.08l-0.802,0.076l-0.798-0.122
		l-0.696-0.121l-0.69-0.32l-0.688-0.42l-0.588-0.417l-0.583-0.618l-0.382-0.61l-0.383-0.611l-0.276-0.809l-0.08-0.702l-0.077-0.804
		l0.123-0.796l0.121-0.697l0.32-0.69l0.42-0.688l0.417-0.588l0.617-0.582l0.611-0.383l0.712-0.379l0.708-0.28l0.702-0.08
		l0.803-0.076l0.797,0.123l0.697,0.12l0.791,0.323l0.588,0.417l0.588,0.417l0.582,0.617l0.383,0.612l0.379,0.711l0.279,0.708
		l0.081,0.702L81.131,134.913 M152.301,136.977l-0.123,0.798l-0.12,0.696l-0.323,0.791l-0.418,0.588l-0.416,0.588l-0.618,0.583
		l-0.61,0.382l-0.712,0.38l-0.709,0.279l-0.701,0.08l-0.804,0.076l-0.796-0.122l-0.697-0.121l-0.69-0.32l-0.688-0.42l-0.589-0.417
		l-0.582-0.618l-0.383-0.61l-0.382-0.611l-0.276-0.809l-0.08-0.702l-0.076-0.804l0.122-0.796l0.121-0.697l0.32-0.69l0.42-0.688
		l0.417-0.588l0.617-0.582l0.611-0.383l0.712-0.379l0.707-0.28l0.703-0.08l0.803-0.076l0.797,0.123l0.696,0.12l0.691,0.32
		l0.688,0.42l0.588,0.417l0.583,0.617l0.382,0.612l0.38,0.711l0.279,0.708l0.08,0.702L152.301,136.977 M82.125,114.433l0.152-1.796
		l0.252-1.794l0.252-1.793l0.452-1.787l0.549-1.686l0.649-1.682l0.749-1.68l0.846-1.575l0.844-1.477l1.043-1.471l1.143-1.467
		l1.141-1.368l1.337-1.262l1.334-1.162l1.435-1.159l1.428-0.959l1.528-0.956l1.626-0.853l1.622-0.753l1.72-0.65l1.717-0.551
		l1.712-0.351l1.71-0.351l1.809-0.248l1.802-0.047l1.802-0.049l1.797,0.153l1.796,0.151l1.791,0.353l1.687,0.449l1.789,0.451
		l1.681,0.649l1.58,0.747l1.575,0.846l1.574,0.945l1.471,1.043l1.47,1.043l1.265,1.237l1.364,1.24l1.162,1.334l1.06,1.432
		l1.056,1.531l0.956,1.528l0.856,1.525l0.753,1.623l0.55,1.717l0.552,1.717l0.45,1.714l0.347,1.811l0.248,1.808l0.048,1.802
		l0.048,1.802l-0.152,1.798l-0.152,1.796l-0.35,1.69l-0.451,1.788l-0.549,1.685l-0.649,1.681l-0.649,1.683l-0.846,1.577
		l-0.946,1.572l-1.043,1.471l-1.14,1.367l-1.141,1.367l-1.237,1.265l-1.434,1.159l-1.334,1.162l-1.531,1.056l-1.525,0.856
		l-1.626,0.854l-1.622,0.753l-1.62,0.653l-1.717,0.551l-1.814,0.447l-1.707,0.25l-1.809,0.248l-1.805,0.147l-1.799-0.052l-1.8-0.053
		l-1.793-0.252l-1.791-0.352l-1.69-0.35l-1.685-0.549l-1.682-0.648l-1.68-0.749l-1.575-0.847l-1.574-0.946l-1.474-0.943l-1.366-1.14
		l-1.365-1.24l-1.265-1.237l-1.262-1.337l-1.06-1.431l-1.059-1.432l-0.956-1.528l-0.753-1.622l-0.753-1.623l-0.65-1.72l-0.552-1.716
		l-0.45-1.715l-0.347-1.811l-0.151-1.705l-0.147-1.805L82.125,114.433 M56.636,113.694l0.03,2.402l0.031,2.402l0.227,2.507
		l0.33,2.41l0.43,2.414l0.531,2.416l0.633,2.32l0.733,2.321l0.832,2.325l0.936,2.229l1.036,2.231l1.036,2.229l1.241,2.037
		l1.339,2.141l1.444,1.941l1.444,1.943l1.547,1.846l1.747,1.851l1.649,1.749l1.856,1.555l1.855,1.555l1.956,1.558l2.061,1.359
		l2.064,1.261l2.064,1.261l2.271,1.066l2.17,1.063l2.275,0.866l2.276,0.866l2.382,0.67l2.384,0.569l2.385,0.569l2.391,0.369
		l2.393,0.27l2.496,0.172l2.399,0.069l2.502-0.026l2.404-0.131l2.408-0.23l2.413-0.43l2.413-0.431l2.417-0.53l2.322-0.732
		l2.322-0.733l2.327-0.933l2.229-0.936l2.135-1.14l2.134-1.139l2.136-1.238l2.043-1.441l1.943-1.444l1.942-1.444l1.849-1.646
		l1.752-1.75l1.651-1.753l1.653-1.854l1.455-1.857l1.461-2.06l1.357-1.961l1.263-2.164l1.163-2.167l1.063-2.17l0.967-2.273
		l0.866-2.275l0.666-2.282l0.67-2.381l0.569-2.385l0.469-2.387l0.372-2.49l0.171-2.396l0.169-2.396l-0.027-2.502l-0.031-2.401
		l-0.227-2.508l-0.33-2.411l-0.431-2.413l-0.533-2.317l-0.529-2.415l-0.733-2.322l-0.833-2.326l-0.936-2.228l-1.036-2.23
		l-1.139-2.135l-1.238-2.137l-1.342-2.039l-1.342-2.04l-1.544-1.946l-1.547-1.846l-1.646-1.848l-1.753-1.651l-1.854-1.655
		l-1.856-1.555l-1.958-1.456l-2.059-1.461l-2.063-1.261l-2.064-1.261l-2.171-1.063l-2.272-0.966l-2.272-0.966l-2.279-0.767
		l-2.379-0.769l-2.384-0.569l-2.388-0.471l-2.388-0.47l-2.393-0.269l-2.496-0.173l-2.399-0.069l-2.502,0.028l-2.404,0.129
		L105,60.474l-2.411,0.33l-2.412,0.431l-2.42,0.629l-2.319,0.634l-2.325,0.833l-2.225,0.835L88.56,65.1l-2.135,1.139l-2.134,1.139
		l-2.139,1.339l-2.04,1.341L78.168,71.5l-1.945,1.545l-1.745,1.55l-1.853,1.746l-1.651,1.753L69.42,79.95l-1.558,1.955l-1.458,1.959
		l-1.36,2.061l-1.16,2.068l-1.163,2.167l-1.063,2.17l-0.966,2.273l-0.866,2.275l-0.77,2.378l-0.667,2.282l-0.569,2.385l-0.469,2.388
		l-0.372,2.49l-0.171,2.396L56.636,113.694"/>
</g>
<path fill="none" stroke="#010101" stroke-width="0.709" stroke-linecap="round" stroke-linejoin="round" stroke-miterlimit="10" d="
	M271.518,74.32l-0.021,0.7l-0.221,0.694l-0.22,0.693l-0.42,0.688l-0.418,0.588l-0.514,0.485l-0.614,0.482l-0.609,0.282l-0.707,0.279
	l-0.706,0.18l-0.703,0.08l-0.699-0.02l-0.797-0.124l-0.694-0.221l-0.591-0.316l-0.69-0.32l-0.485-0.515l-0.485-0.514l-0.482-0.614
	l-0.279-0.709l-0.279-0.708l-0.081-0.703l-0.079-0.702l0.123-0.797l0.121-0.697l0.319-0.69l0.317-0.592l0.518-0.584l0.517-0.586
	l0.512-0.385l0.711-0.38l0.608-0.282l0.706-0.181l0.803-0.076l0.699,0.021l0.697,0.12l0.694,0.22l0.69,0.32l0.588,0.418l0.588,0.416
	l0.482,0.615l0.383,0.611l0.382,0.611l0.18,0.705l0.181,0.706L271.518,74.32 M234.146,134.863l-0.021,0.699l-0.223,0.794
	l-0.221,0.694l-0.418,0.588l-0.416,0.588l-0.518,0.585l-0.612,0.382l-0.61,0.383l-0.709,0.28l-0.706,0.18l-0.701,0.079l-0.7-0.021
	l-0.796-0.123l-0.694-0.22l-0.592-0.317l-0.688-0.421l-0.488-0.413l-0.482-0.615l-0.482-0.613l-0.283-0.608l-0.179-0.706
	l-0.177-0.805l0.021-0.7l0.02-0.7l0.221-0.694l0.22-0.693l0.321-0.69l0.517-0.586l0.515-0.485l0.514-0.485l0.711-0.379l0.609-0.283
	l0.705-0.179l0.803-0.077l0.699,0.021l0.696,0.12l0.694,0.22l0.691,0.321l0.588,0.416l0.586,0.518l0.484,0.514l0.383,0.612
	l0.38,0.711l0.18,0.705l0.18,0.706L234.146,134.863 M305.315,136.928l-0.02,0.699l-0.223,0.794l-0.221,0.694l-0.417,0.588
	l-0.417,0.588l-0.518,0.585l-0.611,0.382l-0.611,0.383l-0.708,0.28l-0.706,0.18l-0.703,0.079l-0.698-0.021l-0.798-0.123l-0.693-0.22
	l-0.592-0.317l-0.688-0.421l-0.488-0.413l-0.482-0.615l-0.482-0.613l-0.281-0.608l-0.28-0.709l-0.076-0.802l-0.08-0.703l0.121-0.697
	l0.12-0.696l0.319-0.691l0.32-0.69l0.517-0.586l0.515-0.485l0.515-0.485l0.711-0.379l0.609-0.283l0.705-0.179l0.803-0.077
	l0.699,0.021l0.697,0.12l0.693,0.22l0.691,0.321l0.588,0.416l0.586,0.518l0.485,0.515l0.382,0.611l0.38,0.711l0.18,0.705
	l0.179,0.706L305.315,136.928 M235.24,114.386l0.05-1.699l0.248-1.693l0.25-1.694l0.349-1.689l0.546-1.585l0.547-1.585l0.646-1.582
	l0.746-1.579l0.843-1.478l0.939-1.373l1.041-1.37l1.04-1.371l1.138-1.267l1.234-1.165l1.23-1.064l1.432-1.06l1.328-0.962
	l1.525-0.855l1.426-0.859l1.62-0.653l1.52-0.656l1.614-0.453l1.713-0.45l1.611-0.354l1.708-0.251l1.705-0.15l1.702-0.051l1.699,0.05
	l1.696,0.148l1.694,0.25l1.59,0.346l1.688,0.449l1.585,0.546l1.585,0.547l1.579,0.745l1.479,0.743l1.473,0.943l1.374,0.94l1.37,1.04
	l1.267,1.138l1.269,1.137l1.164,1.234l1.063,1.331l0.959,1.429l0.959,1.428l0.858,1.426l0.656,1.521l0.753,1.622l0.555,1.617
	l0.453,1.613l0.353,1.611l0.351,1.71l0.151,1.705l0.15,1.706l-0.049,1.699l-0.05,1.699l-0.249,1.693l-0.246,1.594l-0.45,1.688
	l-0.445,1.588l-0.549,1.685l-0.646,1.582l-0.844,1.476l-0.743,1.479l-0.942,1.473l-1.04,1.371l-1.037,1.271l-1.138,1.268
	l-1.234,1.165l-1.335,1.161l-1.328,0.962l-1.428,0.959l-1.429,0.959l-1.522,0.757l-1.52,0.656l-1.619,0.653l-1.618,0.553
	l-1.61,0.354l-1.711,0.351l-1.607,0.253l-1.705,0.151l-1.702,0.051l-1.7-0.049l-1.696-0.15l-1.692-0.249l-1.691-0.35l-1.588-0.445
	l-1.688-0.449l-1.582-0.646l-1.479-0.744l-1.578-0.746l-1.377-0.84l-1.471-1.043l-1.27-1.037l-1.371-1.041l-1.164-1.234
	l-1.165-1.234l-1.063-1.331l-0.962-1.328l-0.959-1.429l-0.855-1.525l-0.756-1.522l-0.656-1.52l-0.554-1.617l-0.45-1.714
	l-0.454-1.613l-0.25-1.708l-0.153-1.605l-0.15-1.704L235.24,114.386 M215.148,113.803l0.037,2.203l0.035,2.201l0.236,2.208
	l0.238,2.108l0.337,2.209l0.538,2.117l0.54,2.116l0.639,2.12l0.738,2.122l0.842,2.025l0.941,2.028l1.045,1.932l1.044,1.93
	l1.247,1.837l1.248,1.838l1.35,1.739l1.453,1.644l1.453,1.643l1.556,1.545l1.658,1.449l1.659,1.448l1.761,1.353l1.865,1.254
	l1.867,1.155l1.87,1.055l1.974,0.957l1.973,0.958l2.076,0.86l2.082,0.661l2.081,0.66l2.185,0.563l2.188,0.464l2.09,0.36l2.193,0.265
	l2.197,0.163l2.199,0.063l2.202-0.035l2.204-0.137l2.208-0.235l2.21-0.337l2.113-0.438l2.217-0.536l2.117-0.539l2.022-0.741
	l2.125-0.84l2.025-0.841l1.929-0.944l1.93-1.045l1.935-1.144l1.837-1.248l1.74-1.35l1.74-1.351l1.644-1.453l1.545-1.556l1.546-1.557
	l1.449-1.657l1.352-1.763l1.252-1.764l1.254-1.864l1.155-1.867l1.058-1.971l0.957-1.973l0.861-2.076l0.76-2.079l0.661-2.081
	l0.561-2.086l0.563-2.184l0.36-2.091l0.364-2.19l0.164-2.195l0.163-2.196l-0.035-2.202l-0.037-2.202l-0.236-2.208l-0.235-2.207
	l-0.437-2.214l-0.438-2.114l-0.54-2.116l-0.638-2.119l-0.739-2.123l-0.841-2.025l-0.944-1.927l-1.043-2.031l-1.146-1.835
	l-1.145-1.934l-1.25-1.737l-1.351-1.74l-1.45-1.742l-1.452-1.643l-1.556-1.546l-1.659-1.449l-1.661-1.349l-1.762-1.352l-1.865-1.255
	l-1.866-1.154l-1.868-1.155l-1.973-0.957l-2.072-0.961l-1.979-0.758l-2.079-0.76l-2.182-0.664l-2.085-0.561l-2.188-0.463
	l-2.19-0.364l-2.195-0.163l-2.196-0.164l-2.199-0.063l-2.202,0.036l-2.202,0.035l-2.107,0.24l-2.211,0.335l-2.214,0.437
	l-2.116,0.539l-2.119,0.638l-2.12,0.64l-2.025,0.842l-2.025,0.841L242,71.063l-1.932,1.044l-1.935,1.145l-1.837,1.248l-1.737,1.249
	L232.82,77.1l-1.643,1.453l-1.546,1.556l-1.549,1.656l-1.448,1.658l-1.35,1.662l-1.354,1.861l-1.151,1.768l-1.158,1.968
	l-1.055,1.869l-0.957,1.974l-0.859,2.076l-0.762,2.078l-0.661,2.082l-0.66,2.082l-0.464,2.188l-0.363,2.189l-0.363,2.19
	l-0.164,2.196L215.148,113.803"/>
<path fill="none" stroke="#000000" stroke-width="0.709" stroke-linecap="round" stroke-linejoin="round" stroke-miterlimit="10" d="
	M379.547,151.306l-0.6,0.1l-0.6,0.101l-0.6,0.1l-0.601,0.2l-0.601,0.3l-0.6,0.2l-0.5,0.399l-0.6,0.301l-0.5,0.399l-0.4,0.4l-0.4,0.5
	l-0.399,0.5l-0.399,0.5l-0.301,0.6l-0.3,0.5l-0.2,0.601l-0.199,0.6l-0.101,0.7l-0.101,0.6l-0.1,0.601v0.6l0.1,0.7l0.101,0.6
	l0.101,0.601l0.199,0.6l0.2,0.6l0.3,0.601l0.301,0.5l0.399,0.6l0.399,0.4l0.4,0.5l0.4,0.399l0.5,0.4l0.6,0.4l0.5,0.3l0.6,0.3
	l0.601,0.2l0.601,0.2l0.6,0.199l0.6,0.101h0.6 M379.547,168.306l45.301,2.1 M424.848,170.405l0.699,0.101l0.701-0.101l0.699-0.1
	l0.7-0.101l0.7-0.199l0.699-0.2l0.701-0.3l0.6-0.301l0.6-0.399l0.6-0.4l0.601-0.399l0.5-0.5l0.5-0.5l0.5-0.5l0.399-0.601l0.4-0.6
	l0.4-0.601l0.3-0.699l0.2-0.7l0.199-0.601l0.201-0.699l0.1-0.7l0.1-0.8v-0.7v-0.7l-0.1-0.7l-0.1-0.7l-0.201-0.699l-0.199-0.7
	l-0.2-0.7l-0.3-0.6l-0.4-0.601l-0.4-0.6l-0.399-0.601l-0.5-0.5l-0.5-0.6l-0.5-0.4l-0.601-0.5l-0.6-0.399l-0.6-0.3l-0.6-0.4
	l-0.701-0.2l-0.699-0.3l-0.7-0.1l-0.7-0.2l-0.699-0.101h-0.701h-0.699 M424.848,149.205l-45.301,2.101 M384.047,159.806l-0.1,0.5
	v0.399l-0.1,0.4l-0.2,0.4l-0.2,0.399l-0.3,0.4l-0.2,0.3l-0.4,0.3l-0.299,0.3l-0.4,0.2l-0.4,0.2l-0.4,0.1l-0.399,0.101l-0.5,0.1
	h-0.399l-0.4-0.1l-0.4-0.101l-0.5-0.1l-0.4-0.2l-0.299-0.2l-0.4-0.3l-0.301-0.3l-0.299-0.3l-0.201-0.4l-0.199-0.399l-0.2-0.4
	l-0.101-0.4l-0.1-0.399v-0.5v-0.4l0.1-0.399l0.101-0.5l0.2-0.4l0.199-0.4l0.201-0.3l0.299-0.3l0.301-0.3l0.4-0.3l0.299-0.2l0.4-0.2
	l0.5-0.2l0.4-0.1h0.4h0.399h0.5l0.399,0.1l0.4,0.2l0.4,0.2l0.4,0.2l0.299,0.3l0.4,0.3l0.2,0.3l0.3,0.3l0.2,0.4l0.2,0.4l0.1,0.5
	v0.399L384.047,159.806 M429.348,159.806v0.5l-0.1,0.399l-0.101,0.4l-0.101,0.4l-0.299,0.399l-0.201,0.4l-0.299,0.3l-0.301,0.3
	l-0.3,0.3l-0.399,0.2l-0.4,0.2l-0.4,0.1l-0.5,0.101l-0.4,0.1h-0.399l-0.5-0.1l-0.399-0.101l-0.4-0.1l-0.4-0.2l-0.4-0.2l-0.299-0.3
	l-0.301-0.3l-0.3-0.3l-0.3-0.4l-0.2-0.399l-0.101-0.4l-0.199-0.4v-0.399l-0.1-0.5l0.1-0.4v-0.399l0.199-0.5l0.101-0.4l0.2-0.4
	l0.3-0.3l0.3-0.3l0.301-0.3l0.299-0.3l0.4-0.2l0.4-0.2l0.4-0.2l0.399-0.1h0.5h0.399h0.4l0.5,0.1l0.4,0.2l0.4,0.2l0.399,0.2l0.3,0.3
	l0.301,0.3l0.299,0.3l0.201,0.3l0.299,0.4l0.101,0.4l0.101,0.5l0.1,0.399V159.806"/>
<path fill="none" stroke="#000000" stroke-width="0.709" stroke-linecap="round" stroke-linejoin="round" stroke-miterlimit="10" d="
	M376.497,101.349v0.5l-0.1,0.4l-0.199,0.5l-0.301,0.3l-0.3,0.399l-0.399,0.201l-0.4,0.199l-0.4,0.1l-0.5,0.101l-0.4-0.101l-0.5-0.1
	l-0.399-0.199l-0.399-0.201l-0.301-0.399l-0.3-0.3l-0.101-0.5l-0.199-0.4v-0.5v-0.4l0.199-0.5l0.101-0.399l0.3-0.3l0.301-0.4
	l0.399-0.199l0.399-0.201l0.5-0.1l0.4-0.1l0.5,0.1l0.4,0.1l0.4,0.201l0.399,0.199l0.3,0.4l0.301,0.3l0.199,0.399l0.1,0.5V101.349
	 M387.897,101.349l-0.1,0.5l-0.1,0.4l-0.201,0.5l-0.199,0.3l-0.4,0.399l-0.3,0.201l-0.399,0.199l-0.5,0.1l-0.4,0.101l-0.5-0.101
	l-0.4-0.1l-0.5-0.199l-0.3-0.201l-0.399-0.399l-0.201-0.3l-0.199-0.5l-0.1-0.4l-0.101-0.5l0.101-0.4l0.1-0.5l0.199-0.399l0.201-0.3
	l0.399-0.4l0.3-0.199l0.5-0.201l0.4-0.1l0.5-0.1l0.4,0.1l0.5,0.1l0.399,0.201l0.3,0.199l0.4,0.4l0.199,0.3l0.201,0.399l0.1,0.5
	L387.897,101.349 M436.098,101.349l-0.101,0.5l-0.1,0.4l-0.199,0.5l-0.201,0.3l-0.399,0.399l-0.3,0.201l-0.5,0.199l-0.4,0.1
	l-0.5,0.101l-0.4-0.101l-0.5-0.1l-0.399-0.199l-0.3-0.201l-0.4-0.399l-0.199-0.3l-0.201-0.5l-0.1-0.4l-0.1-0.5l0.1-0.4l0.1-0.5
	l0.201-0.399l0.199-0.3l0.4-0.4l0.3-0.199l0.399-0.201l0.5-0.1l0.4-0.1l0.5,0.1l0.4,0.1l0.5,0.201l0.3,0.199l0.399,0.4l0.201,0.3
	l0.199,0.399l0.1,0.5L436.098,101.349 M424.698,101.349v0.5l-0.101,0.4l-0.2,0.5l-0.3,0.3l-0.3,0.399l-0.4,0.201l-0.4,0.199
	l-0.399,0.1l-0.5,0.101l-0.399-0.101l-0.5-0.1l-0.4-0.199l-0.4-0.201l-0.3-0.399l-0.3-0.3l-0.2-0.5l-0.101-0.4v-0.5v-0.4l0.101-0.5
	l0.2-0.399l0.3-0.3l0.3-0.4l0.4-0.199l0.4-0.201l0.5-0.1l0.399-0.1l0.5,0.1l0.399,0.1l0.4,0.201l0.4,0.199l0.3,0.4l0.3,0.3
	l0.2,0.399l0.101,0.5V101.349 M410.798,101.349l-0.1,0.801l-0.101,0.699l-0.2,0.7l-0.199,0.7l-0.4,0.699l-0.4,0.601l-0.5,0.601
	l-0.5,0.5l-0.6,0.5l-0.6,0.399l-0.601,0.3l-0.7,0.301l-0.699,0.199l-0.801,0.1h-0.699h-0.801l-0.699-0.1l-0.701-0.199l-0.699-0.301
	l-0.7-0.3l-0.601-0.399l-0.6-0.5l-0.5-0.5l-0.5-0.601l-0.4-0.601l-0.299-0.699l-0.301-0.7l-0.199-0.7l-0.101-0.699v-0.801v-0.699
	l0.101-0.701l0.199-0.699l0.301-0.7l0.299-0.7l0.4-0.6l0.5-0.6l0.5-0.5l0.6-0.5l0.601-0.4l0.7-0.301l0.699-0.299l0.701-0.201
	l0.699-0.1h0.801h0.699l0.801,0.1l0.699,0.201l0.7,0.299l0.601,0.301l0.6,0.4l0.6,0.5l0.5,0.5l0.5,0.6l0.4,0.6l0.4,0.7l0.199,0.7
	l0.2,0.699l0.101,0.701L410.798,101.349 M421.298,126.349v-13.6 M453.298,112.749h-32 M453.298,90.049v22.7 M421.298,90.049h32
	 M421.298,76.448v13.601 M386.098,76.448h35.2 M386.098,90.049V76.448 M354.098,90.049h32 M354.098,112.749v-22.7 M386.098,112.749
	h-32 M386.098,112.749v13.6 M386.098,126.349h35.2"/>
<rect x="403.697" y="157.505" fill="none" width="26" height="26"/>
<text transform="matrix(1 0 0 1 403.6973 166.0254)" stroke="#FF0000" stroke-miterlimit="10" font-family="'MyriadPro-Regular'" font-size="12">G</text>
<rect x="398.5" y="113.349" fill="none" width="26" height="26"/>
<text transform="matrix(1 0 0 1 398.5 121.8687)" stroke="#FF0000" stroke-miterlimit="10" font-family="'MyriadPro-Regular'" font-size="12">G</text>
</svg>
